TITLE ""
FILE "2Q_j_1421-1434.mp3" MP3
  TRACK 01 AUDIO
    TITLE "2Q_j_1421-1434_01"
    INDEX 01 00:00:00
  TRACK 02 AUDIO
    TITLE "2Q_j_1421-1434_02"
    INDEX 01 00:00:08
  TRACK 03 AUDIO
    TITLE "2Q_j_1421-1434_03"
    INDEX 01 00:01:37
  TRACK 04 AUDIO
    TITLE "2Q_j_1421-1434_04"
    INDEX 01 00:02:07
  TRACK 05 AUDIO
    TITLE "2Q_j_1421-1434_05"
    INDEX 01 00:03:34
  TRACK 06 AUDIO
    TITLE "2Q_j_1421-1434_06"
    INDEX 01 00:04:04
  TRACK 07 AUDIO
    TITLE "2Q_j_1421-1434_07"
    INDEX 01 00:06:54
  TRACK 08 AUDIO
    TITLE "2Q_j_1421-1434_08"
    INDEX 01 00:07:26
  TRACK 09 AUDIO
    TITLE "2Q_j_1421-1434_09"
    INDEX 01 00:09:07
  TRACK 10 AUDIO
    TITLE "2Q_j_1421-1434_10"
    INDEX 01 00:09:52
  TRACK 11 AUDIO
    TITLE "2Q_j_1421-1434_11"
    INDEX 01 00:11:65
  TRACK 12 AUDIO
    TITLE "2Q_j_1421-1434_12"
    INDEX 01 00:12:35
  TRACK 13 AUDIO
    TITLE "2Q_j_1421-1434_13"
    INDEX 01 00:18:08
  TRACK 14 AUDIO
    TITLE "2Q_j_1421-1434_14"
    INDEX 01 00:18:65
  TRACK 15 AUDIO
    TITLE "2Q_j_1421-1434_15"
    INDEX 01 00:20:68
  TRACK 16 AUDIO
    TITLE "2Q_j_1421-1434_16"
    INDEX 01 00:21:44
  TRACK 17 AUDIO
    TITLE "2Q_j_1421-1434_17"
    INDEX 01 00:24:30
  TRACK 18 AUDIO
    TITLE "2Q_j_1421-1434_18"
    INDEX 01 00:25:00
  TRACK 19 AUDIO
    TITLE "2Q_j_1421-1434_19"
    INDEX 01 00:29:00
  TRACK 20 AUDIO
    TITLE "2Q_j_1421-1434_20"
    INDEX 01 00:29:47
  TRACK 21 AUDIO
    TITLE "2Q_j_1421-1434_21"
    INDEX 01 00:30:62
  TRACK 22 AUDIO
    TITLE "2Q_j_1421-1434_22"
    INDEX 01 00:31:32
  TRACK 23 AUDIO
    TITLE "2Q_j_1421-1434_23"
    INDEX 01 00:35:15
  TRACK 24 AUDIO
    TITLE "2Q_j_1421-1434_24"
    INDEX 01 00:35:60
  TRACK 25 AUDIO
    TITLE "2Q_j_1421-1434_25"
    INDEX 01 00:40:55
  TRACK 26 AUDIO
    TITLE "2Q_j_1421-1434_26"
    INDEX 01 00:41:29
  TRACK 27 AUDIO
    TITLE "2Q_j_1421-1434_27"
    INDEX 01 00:43:65
  TRACK 28 AUDIO
    TITLE "2Q_j_1421-1434_28"
    INDEX 01 00:44:41
  TRACK 29 AUDIO
    TITLE "2Q_j_1421-1434_29"
    INDEX 01 00:47:10
  TRACK 30 AUDIO
    TITLE "2Q_j_1421-1434_30"
    INDEX 01 00:47:55
  TRACK 31 AUDIO
    TITLE "2Q_j_1421-1434_31"
    INDEX 01 00:51:10
  TRACK 32 AUDIO
    TITLE "2Q_j_1421-1434_32"
    INDEX 01 00:51:57
  TRACK 33 AUDIO
    TITLE "2Q_j_1421-1434_33"
    INDEX 01 00:53:14
  TRACK 34 AUDIO
    TITLE "2Q_j_1421-1434_34"
    INDEX 01 00:53:61
  TRACK 35 AUDIO
    TITLE "2Q_j_1421-1434_35"
    INDEX 01 00:55:66
  TRACK 36 AUDIO
    TITLE "2Q_j_1421-1434_36"
    INDEX 01 00:56:36
  TRACK 37 AUDIO
    TITLE "2Q_j_1421-1434_37"
    INDEX 01 01:00:50
  TRACK 38 AUDIO
    TITLE "2Q_j_1421-1434_38"
    INDEX 01 01:01:24
  TRACK 39 AUDIO
    TITLE "2Q_j_1421-1434_39"
    INDEX 01 01:02:62
  TRACK 40 AUDIO
    TITLE "2Q_j_1421-1434_40"
    INDEX 01 01:03:34
  TRACK 41 AUDIO
    TITLE "2Q_j_1421-1434_41"
    INDEX 01 01:08:00
  TRACK 42 AUDIO
    TITLE "2Q_j_1421-1434_42"
    INDEX 01 01:08:45
  TRACK 43 AUDIO
    TITLE "2Q_j_1421-1434_43"
    INDEX 01 01:12:10
  TRACK 44 AUDIO
    TITLE "2Q_j_1421-1434_44"
    INDEX 01 01:12:57
  TRACK 45 AUDIO
    TITLE "2Q_j_1421-1434_45"
    INDEX 01 01:14:03
  TRACK 46 AUDIO
    TITLE "2Q_j_1421-1434_46"
    INDEX 01 01:14:48
  TRACK 47 AUDIO
    TITLE "2Q_j_1421-1434_47"
    INDEX 01 01:18:26
  TRACK 48 AUDIO
    TITLE "2Q_j_1421-1434_48"
    INDEX 01 01:18:71
  TRACK 49 AUDIO
    TITLE "2Q_j_1421-1434_49"
    INDEX 01 01:23:31
  TRACK 50 AUDIO
    TITLE "2Q_j_1421-1434_50"
    INDEX 01 01:24:03
  TRACK 51 AUDIO
    TITLE "2Q_j_1421-1434_51"
    INDEX 01 01:25:22
  TRACK 52 AUDIO
    TITLE "2Q_j_1421-1434_52"
    INDEX 01 01:25:67
  TRACK 53 AUDIO
    TITLE "2Q_j_1421-1434_53"
    INDEX 01 01:27:51
  TRACK 54 AUDIO
    TITLE "2Q_j_1421-1434_54"
    INDEX 01 01:28:21
  TRACK 55 AUDIO
    TITLE "2Q_j_1421-1434_55"
    INDEX 01 01:31:58
  TRACK 56 AUDIO
    TITLE "2Q_j_1421-1434_56"
    INDEX 01 01:32:28
  TRACK 57 AUDIO
    TITLE "2Q_j_1421-1434_57"
    INDEX 01 01:34:27
  TRACK 58 AUDIO
    TITLE "2Q_j_1421-1434_58"
    INDEX 01 01:35:03
  TRACK 59 AUDIO
    TITLE "2Q_j_1421-1434_59"
    INDEX 01 01:37:72
  TRACK 60 AUDIO
    TITLE "2Q_j_1421-1434_60"
    INDEX 01 01:38:43
  TRACK 61 AUDIO
    TITLE "2Q_j_1421-1434_61"
    INDEX 01 01:41:43
  TRACK 62 AUDIO
    TITLE "2Q_j_1421-1434_62"
    INDEX 01 01:42:19
  TRACK 63 AUDIO
    TITLE "2Q_j_1421-1434_63"
    INDEX 01 01:43:44
  TRACK 64 AUDIO
    TITLE "2Q_j_1421-1434_64"
    INDEX 01 01:44:14
  TRACK 65 AUDIO
    TITLE "2Q_j_1421-1434_65"
    INDEX 01 01:46:09
  TRACK 66 AUDIO
    TITLE "2Q_j_1421-1434_66"
    INDEX 01 01:46:52
  TRACK 67 AUDIO
    TITLE "2Q_j_1421-1434_67"
    INDEX 01 01:50:28
  TRACK 68 AUDIO
    TITLE "2Q_j_1421-1434_68"
    INDEX 01 01:51:06
  TRACK 69 AUDIO
    TITLE "2Q_j_1421-1434_69"
    INDEX 01 01:52:17
  TRACK 70 AUDIO
    TITLE "2Q_j_1421-1434_70"
    INDEX 01 01:52:62
  TRACK 71 AUDIO
    TITLE "2Q_j_1421-1434_71"
    INDEX 01 01:54:61
  TRACK 72 AUDIO
    TITLE "2Q_j_1421-1434_72"
    INDEX 01 01:55:29
  TRACK 73 AUDIO
    TITLE "2Q_j_1421-1434_73"
    INDEX 01 01:58:51
  TRACK 74 AUDIO
    TITLE "2Q_j_1421-1434_74"
    INDEX 01 01:59:25
  TRACK 75 AUDIO
    TITLE "2Q_j_1421-1434_75"
    INDEX 01 02:00:64
  TRACK 76 AUDIO
    TITLE "2Q_j_1421-1434_76"
    INDEX 01 02:01:36
  TRACK 77 AUDIO
    TITLE "2Q_j_1421-1434_77"
    INDEX 01 02:03:27
  TRACK 78 AUDIO
    TITLE "2Q_j_1421-1434_78"
    INDEX 01 02:03:72
  TRACK 79 AUDIO
    TITLE "2Q_j_1421-1434_79"
    INDEX 01 02:06:56
  TRACK 80 AUDIO
    TITLE "2Q_j_1421-1434_80"
    INDEX 01 02:07:28
  TRACK 81 AUDIO
    TITLE "2Q_j_1421-1434_81"
    INDEX 01 02:08:53
  TRACK 82 AUDIO
    TITLE "2Q_j_1421-1434_82"
    INDEX 01 02:09:29
  TRACK 83 AUDIO
    TITLE "2Q_j_1421-1434_83"
    INDEX 01 02:12:65
  TRACK 84 AUDIO
    TITLE "2Q_j_1421-1434_84"
    INDEX 01 02:13:37
  TRACK 85 AUDIO
    TITLE "2Q_j_1421-1434_85"
    INDEX 01 02:17:27
